<?xml version="1.0" encoding="UTF-8" standalone="no"?>
<!-- Created with Inkscape (http://www.inkscape.org/) -->

<svg
   width="123.87928mm"
   height="146.79071mm"
   viewBox="0 0 123.87928 146.79071"
   version="1.1"
   id="svg5"
   xml:space="preserve"
   inkscape:version="1.2.2 (b0a8486541, 2022-12-01)"
   sodipodi:docname="Incline-1.svg"
   xmlns:inkscape="http://www.inkscape.org/namespaces/inkscape"
   xmlns:sodipodi="http://sodipodi.sourceforge.net/DTD/sodipodi-0.dtd"
   xmlns="http://www.w3.org/2000/svg"
   xmlns:svg="http://www.w3.org/2000/svg"><sodipodi:namedview
     id="namedview7"
     pagecolor="#ffffff"
     bordercolor="#000000"
     borderopacity="0.25"
     inkscape:showpageshadow="2"
     inkscape:pageopacity="0.0"
     inkscape:pagecheckerboard="0"
     inkscape:deskcolor="#d1d1d1"
     inkscape:document-units="mm"
     showgrid="false"
     inkscape:zoom="0.46769781"
     inkscape:cx="107.9757"
     inkscape:cy="169.98155"
     inkscape:current-layer="svg5"><inkscape:page
       x="0"
       y="0"
       width="123.87928"
       height="146.79071"
       id="page206" /><inkscape:page
       x="185.47928"
       y="-45.835011"
       width="342.1944"
       height="207.08057"
       id="page208" /></sodipodi:namedview><defs
     id="defs2"><clipPath
       clipPathUnits="userSpaceOnUse"
       id="clipPath146"><path
         d="M 0,0 H 970 V 587 H 0 Z"
         id="path144" /></clipPath></defs><g
     inkscape:label="Layer 1"
     inkscape:groupmode="layer"
     id="layer1"
     transform="translate(-34.520718,-45.83501)" /><g
     id="g142"
     clip-path="url(#clipPath146)"
     transform="matrix(0.35277776,0,0,0.35277778,-30.623575,-16.417861)"><path
       d="M 0,0 H 970 V 587 H 0 V 0"
       style="fill:#ffffff;fill-opacity:1;fill-rule:nonzero;stroke:none"
       id="path148" /><path
       d="m 254.39267,373.76154 c 11.95387,0 23.74358,-2.78317 34.43545,-8.1291 l -34.43545,-68.8709 z"
       style="fill:#000000;fill-opacity:0.0980392;fill-rule:nonzero;stroke:none"
       id="path150" /><path
       d="m 254.39267,373.76154 c 11.95387,0 23.74358,-2.78317 34.43545,-8.1291 l -34.43545,-68.8709 z"
       style="fill:none;stroke:#000000;stroke-width:3;stroke-linecap:round;stroke-linejoin:round;stroke-miterlimit:10;stroke-dasharray:none;stroke-opacity:1"
       id="path152" /><g
       id="g154"
       transform="scale(19)"><g
         id="g156"
         transform="translate(14.15789,20.79926)"><path
           d="m 0.455,-0.5 v 0 c 0,0 0,0.153 -0.078,0.31 0,0 -0.07,0.14 -0.155,0.185 0,0 -0.031,0.016 -0.06,0.016 0,0 -0.082,0 -0.11,-0.112 0,0 -0.01,-0.042 -0.01,-0.093 0,0 0,-0.157 0.08,-0.315 0,0 0.07,-0.137 0.155,-0.181 0,0 0.03,-0.015 0.058,-0.015 0,0 0.087,0 0.112,0.127 0,0 0.008,0.038 0.008,0.078 m -0.307,0.137 v 0 h 0.209 c 0,0 0.032,-0.132 0.032,-0.199 0,0 0,-0.113 -0.047,-0.12 0,0 -0.004,-0.001 -0.008,-0.001 0,0 -0.051,0 -0.109,0.105 0,0 -0.038,0.067 -0.076,0.21 0,0 0,0.003 -0.001,0.005 m 0.2,0.032 H 0.14 c 0,0 -0.032,0.121 -0.032,0.198 0,0 0,0.12 0.054,0.122 0,0 0.056,0 0.116,-0.117 0,0 0.039,-0.074 0.07,-0.203 z"
           style="fill:#000000;fill-opacity:1;fill-rule:nonzero;stroke:none"
           id="path158" /></g></g><path
       d="m 254.39267,64.313495 -4.25,17 h 3 V 296.76154 c 0,0.69036 0.55965,1.25 1.25,1.25 0.69036,0 1.25,-0.55964 1.25,-1.25 V 81.313495 h 3 z"
       style="fill:#000000;fill-opacity:1;fill-rule:nonzero;stroke:none"
       id="path160" /><g
       id="g162"
       transform="scale(19)"><g
         id="g164"
         transform="translate(13.89474,10.15668)"><path
           d="m 0.756,-0.578 -0.14,0.557 c 0,0 -0.005,0.019 -0.01,0.02 L 0.605,0 H 0.6 c 0,0 -0.01,0 -0.016,-0.012 0,0 -0.001,-0.003 -0.003,-0.007 L 0.332,-0.608 0.323,-0.626 0.191,-0.098 c 0,0 -0.004,0.015 -0.004,0.023 0,0 0,0.034 0.043,0.042 0,0 0.01,0.002 0.023,0.002 0,0 0.02,0 0.02,0.011 0,0 0,0.02 -0.018,0.02 l -0.1,-0.003 H 0.152 L 0.053,0 H 0.052 c 0,0 -0.013,0 -0.013,-0.011 0,0 0,-0.02 0.017,-0.02 0,0 0.079,-0.003 0.1,-0.05 0,0 0.004,-0.01 0.008,-0.025 l 0.134,-0.537 c 0,0 0,-0.009 -0.068,-0.009 0,0 -0.026,0 -0.028,-0.011 0,0 0,-0.018 0.015,-0.02 h 0.014 0.134 c 0,0 0.021,0 0.026,0.007 0,0 0.002,0.003 0.006,0.012 l 0.221,0.522 0.112,-0.445 c 0,0 0.003,-0.009 0.003,-0.021 0,0 0,-0.043 -0.068,-0.044 0,0 -0.018,0 -0.018,-0.011 0,0 0,-0.02 0.018,-0.02 l 0.101,0.003 h 0.001 l 0.1,-0.003 h 0.001 c 0,0 0.013,0 0.013,0.011 0,0 0,0.02 -0.017,0.02 0,0 -0.078,0.003 -0.1,0.049 v 0 c 0,0 -0.004,0.01 -0.008,0.025 z"
           style="fill:#000000;fill-opacity:1;fill-rule:nonzero;stroke:none"
           id="path166" /></g></g><path
       d="m 116.42731,292.51154 -17.000003,4.25 17.000003,4.25 v -3 h 137.96536 c 0.69036,0 1.25,-0.55964 1.25,-1.25 0,-0.69035 -0.55964,-1.25 -1.25,-1.25 H 116.42731 Z"
       style="fill:#000000;fill-opacity:1;fill-rule:nonzero;stroke:none"
       id="path168" /><g
       id="g170"
       transform="scale(19)"><g
         id="g172"
         transform="translate(8.73684,17.22032)"><path
           d="m 0.367,-0.4 v 0 l -0.06,0.317 c 0,0 -0.009,0.062 -0.036,0.142 0,0 -0.01,0.029 -0.02,0.049 0,0 -0.035,0.074 -0.087,0.092 0,0 -0.013,0.005 -0.026,0.005 0,0 -0.05,0 -0.074,-0.034 0,0 -0.011,-0.015 -0.011,-0.035 0,0 0,-0.04 0.034,-0.055 0,0 0.01,-0.005 0.021,-0.005 0,0 0.029,0 0.036,0.025 0,0 0.001,0.005 0.001,0.01 0,0 0,0.034 -0.03,0.048 0,0 -0.011,0.005 -0.025,0.006 0,0 0.019,0.018 0.048,0.018 0,0 0.044,0 0.069,-0.098 0,0 0.005,-0.023 0.012,-0.06 L 0.225,-0.005 0.3,-0.4 H 0.234 c 0,0 -0.025,0 -0.027,-0.008 H 0.206 v -0.004 c 0,0 0,-0.017 0.017,-0.019 v 0 h 0.013 0.069 c 0,0 0.024,-0.125 0.033,-0.157 0,0 0.03,-0.1 0.106,-0.115 0,0 0.011,-0.002 0.021,-0.002 0,0 0.052,0 0.076,0.034 v 0 c 0,0 0.011,0.015 0.011,0.035 0,0 0,0.04 -0.034,0.055 0,0 -0.01,0.005 -0.021,0.005 0,0 -0.029,0 -0.036,-0.025 0,0 -0.001,-0.005 -0.001,-0.01 0,0 0,-0.031 0.028,-0.046 0,0 0.011,-0.007 0.026,-0.008 0,0 -0.019,-0.018 -0.049,-0.018 0,0 -0.031,0 -0.047,0.034 0,0 -0.007,0.014 -0.024,0.104 l -0.021,0.114 h 0.083 c 0,0 0.025,0 0.027,0.011 0,0 0,0.018 -0.016,0.02 H 0.466 0.453 Z"
           style="fill:#000000;fill-opacity:1;fill-rule:nonzero;stroke:none"
           id="path174" /></g></g><path
       d="m 254.3917,295.51127 c -0.18786,0 -0.37859,0.0425 -0.55805,0.13224 -0.61747,0.30873 -0.86775,1.05958 -0.55901,1.67705 l 69.88005,139.7601 v 0 l -2.68328,1.34164 11.40394,13.30461 -3.80131,-17.10592 -2.68328,1.34164 v 0 L 255.51071,296.20252 c -0.21901,-0.43801 -0.66048,-0.69125 -1.11901,-0.69125 z"
       style="fill:#000000;fill-opacity:1;fill-rule:nonzero;stroke:none"
       id="path176" /><g
       id="g178"
       transform="scale(19)"><g
         id="g180"
         transform="translate(17.47368,22.69416)"><path
           d="m 0.088,-0.059 v 0 L 0.146,-0.29 c 0,0 0.016,-0.064 0.016,-0.084 0,0 0,-0.046 -0.031,-0.046 0,0 -0.041,0 -0.067,0.095 0,0 -0.003,0.011 -0.006,0.024 0,0 -0.011,0.022 -0.017,0.023 0,0 -0.012,0 -0.012,-0.01 0,0 0,-0.016 0.019,-0.068 0,0 0.006,-0.017 0.012,-0.029 0,0 0.024,-0.049 0.06,-0.056 0,0 0.007,-0.001 0.014,-0.001 0,0 0.054,0 0.08,0.045 0,0 0.01,0.019 0.012,0.042 0,0 0.064,-0.087 0.156,-0.087 0,0 0.051,0 0.082,0.026 0,0 0.028,0.024 0.032,0.071 0,0 0.068,-0.097 0.163,-0.097 0,0 0.089,0 0.11,0.069 v 0.001 c 0,0 0.005,0.017 0.005,0.037 0,0 0,0.053 -0.061,0.22 0,0 -0.018,0.044 -0.018,0.071 0,0 0,0.033 0.024,0.033 0,0 0.062,0 0.098,-0.11 l 0.004,-0.014 c 0,0 0.005,-0.016 0.01,-0.017 v -0.001 h 0.005 c 0,0 0.012,0 0.012,0.01 0,0 0,0.017 -0.021,0.063 0,0 -0.043,0.091 -0.11,0.091 0,0 -0.051,0 -0.073,-0.043 0,0 -0.009,-0.018 -0.009,-0.039 0,0 0,-0.02 0.013,-0.055 0,0 0.062,-0.164 0.062,-0.224 0,0 0,-0.07 -0.054,-0.07 0,0 -0.088,0 -0.146,0.095 0,0 -0.016,0.025 -0.019,0.038 0,0 -0.003,0.013 -0.06,0.241 0,0 -0.011,0.043 -0.025,0.052 L 0.405,0.007 H 0.404 c 0,0 -0.007,0.004 -0.018,0.004 0,0 -0.025,-0.005 -0.029,-0.027 L 0.37,-0.075 0.39,-0.151 0.418,-0.267 c 0,0 0.015,-0.056 0.015,-0.083 0,0 0,-0.07 -0.054,-0.07 0,0 -0.09,0 -0.151,0.1 0,0 -0.007,0.011 -0.012,0.022 l -0.013,0.05 c 0,0 -0.005,0.023 -0.017,0.067 l -0.022,0.09 c 0,0 -0.017,0.069 -0.019,0.074 0,0 -0.009,0.026 -0.037,0.028 0,0 -0.025,-0.005 -0.029,-0.027 0,0 0,0.002 0.009,-0.043 z"
           style="fill:#000000;fill-opacity:1;fill-rule:nonzero;stroke:none"
           id="path182" /></g><g
         id="g184"
         transform="translate(18.35168,22.69416)"><path
           d="m 0.471,-0.377 v 0 L 0.36,0.067 c 0,0 -0.015,0.06 -0.078,0.101 0,0 -0.058,0.037 -0.134,0.037 0,0 -0.123,0 -0.132,-0.05 0,0 -0.001,-0.005 -0.001,-0.011 0,0 0,-0.041 0.037,-0.055 0,0 0.009,-0.003 0.017,-0.003 0,0 0.031,0 0.037,0.027 0,0 0.001,0.004 0.001,0.008 0,0 0,0.032 -0.03,0.048 0,0 -0.005,0.002 -0.011,0.004 0,0 0.031,0.01 0.08,0.01 0,0 0.098,0 0.144,-0.108 L 0.323,-0.057 0.322,-0.058 c 0,0 -0.045,0.05 -0.101,0.057 0,0 -0.008,0.001 -0.015,0.001 0,0 -0.07,0 -0.108,-0.061 0,0 -0.025,-0.041 -0.025,-0.097 0,0 0,-0.107 0.076,-0.196 0,0 0.07,-0.082 0.151,-0.088 h 0.011 c 0,0 0.054,0 0.087,0.051 l 0.006,0.012 c 0,0 0.009,-0.038 0.041,-0.043 0,0 0.026,0 0.029,0.027 l -0.003,0.018 m -0.13,0.249 v 0 l 0.048,-0.191 c 0,0 0.003,-0.012 0.003,-0.015 0,0 0,-0.02 -0.017,-0.048 v 0 c 0,0 -0.012,-0.02 -0.03,-0.03 0,0 -0.015,-0.008 -0.033,-0.008 0,0 -0.052,0 -0.099,0.067 0,0 -0.007,0.011 -0.013,0.022 0,0 -0.032,0.06 -0.051,0.167 0,0 -0.005,0.031 -0.005,0.05 0,0 0,0.066 0.038,0.086 0,0 0.011,0.006 0.027,0.006 0,0 0.039,0 0.081,-0.036 0,0 0.044,-0.038 0.051,-0.07 z"
           style="fill:#000000;fill-opacity:1;fill-rule:nonzero;stroke:none"
           id="path186" /></g></g><path
       d="m 331.87535,141.79618 -4.25,17 h 3 v 60.48268 c 0,0.69036 0.55965,1.25 1.25,1.25 0.69036,0 1.25,-0.55964 1.25,-1.25 v -60.48268 h 3 z"
       style="fill:#000000;fill-opacity:1;fill-rule:nonzero;stroke:none"
       id="path188" /><g
       id="g190"
       transform="scale(19)"><g
         id="g192"
         transform="translate(17.31579,6.85205)"><path
           d="M 0.486,-0.381 0.39,0.001 c 0,0 -0.024,0.098 -0.107,0.159 0,0 -0.061,0.045 -0.127,0.045 0,0 -0.067,0 -0.095,-0.046 0,0 -0.011,-0.019 -0.011,-0.041 0,0 0,-0.051 0.041,-0.063 0,0 0.008,-0.002 0.015,-0.002 0,0 0.032,0 0.036,0.028 0,0 0.001,0.003 0.001,0.007 0,0 0,0.023 -0.02,0.041 0,0 -0.014,0.012 -0.043,0.012 0,0 0.018,0.042 0.076,0.042 0,0 0.062,0 0.11,-0.063 0,0 0.039,-0.052 0.062,-0.141 0,0 0.001,-0.004 0.003,-0.013 0,0 -0.045,0.045 -0.101,0.045 0,0 -0.08,0 -0.109,-0.059 0,0 -0.013,-0.026 -0.013,-0.06 0,0 0,-0.055 0.053,-0.197 0,0 0.002,-0.006 0.005,-0.013 0,0 0.017,-0.046 0.017,-0.07 0,0 0,-0.032 -0.025,-0.032 0,0 -0.055,0 -0.09,0.091 v 0.001 c 0,0 -0.006,0.015 -0.011,0.032 0,0 -0.011,0.017 -0.016,0.018 0,0 -0.012,0 -0.012,-0.01 0,0 0,-0.018 0.021,-0.063 0,0 0.044,-0.091 0.111,-0.091 0,0 0.053,0 0.074,0.045 0,0 0.008,0.017 0.008,0.037 0,0 0,0.021 -0.02,0.072 0,0 -0.051,0.132 -0.051,0.196 0,0 0,0.081 0.062,0.081 0,0 0.058,0 0.101,-0.062 0,0 0.01,-0.015 0.012,-0.023 l 0.045,-0.18 c 0,0 0.007,-0.033 0.02,-0.08 0,0 0.01,-0.043 0.014,-0.054 0,0 0.013,-0.021 0.035,-0.021 0,0 0.025,0.005 0.029,0.027 0,0 0,0.009 -0.004,0.023 z"
           style="fill:#000000;fill-opacity:1;fill-rule:nonzero;stroke:none"
           id="path194" /></g></g><path
       d="m 392.35804,215.02886 v 3 h -60.48269 c -0.69035,0 -1.25,0.55964 -1.25,1.25 0,0.69036 0.55965,1.25 1.25,1.25 h 60.48269 v 3 l 17,-4.25 z"
       style="fill:#000000;fill-opacity:1;fill-rule:nonzero;stroke:none"
       id="path196" /><g
       id="g198"
       transform="scale(19)"><g
         id="g200"
         transform="translate(21.89474,11.74679)"><path
           d="M 0.334,-0.302 0.3,-0.165 c 0,0 -0.017,0.068 -0.017,0.088 0,0 0,0.052 0.037,0.063 0,0 0.008,0.003 0.018,0.003 0,0 0.05,0 0.091,-0.05 0,0 0.027,-0.032 0.042,-0.081 0,0 0.003,-0.011 0.013,-0.011 0,0 0.012,0 0.012,0.01 0,0 0,0.025 -0.031,0.072 0,0 -0.054,0.082 -0.129,0.082 0,0 -0.068,0 -0.099,-0.057 0,0 -0.006,-0.009 -0.009,-0.019 0,0 -0.024,0.048 -0.066,0.067 0,0 -0.019,0.009 -0.039,0.009 0,0 -0.06,0 -0.084,-0.035 0,0 -0.01,-0.013 -0.01,-0.031 0,0 0,-0.037 0.032,-0.052 0,0 0.011,-0.006 0.023,-0.006 0,0 0.03,0 0.036,0.025 0,0 0.001,0.005 0.001,0.01 0,0 0,0.034 -0.034,0.05 0,0 -0.006,0.003 -0.013,0.004 0,0 0.021,0.013 0.05,0.013 0,0 0.053,0 0.084,-0.071 0,0 0.006,-0.015 0.011,-0.033 0,0 0.054,-0.204 0.054,-0.238 0,0 -0.006,-0.062 -0.054,-0.067 0,0 -0.052,0 -0.095,0.053 v 0.001 c 0,0 0,0.001 -0.001,0.001 0,0 -0.015,0.02 -0.027,0.046 0,0 -0.005,0.012 -0.009,0.024 l -0.002,0.006 c 0,0 -0.002,0.011 -0.013,0.011 0,0 -0.012,0 -0.012,-0.01 0,0 0,-0.025 0.032,-0.072 0,0 0.054,-0.082 0.129,-0.082 0,0 0.077,0 0.108,0.076 0,0 0.032,-0.062 0.085,-0.074 0,0 0.01,-0.002 0.02,-0.002 0,0 0.059,0 0.083,0.033 0,0 0.01,0.014 0.01,0.033 0,0 0,0.041 -0.037,0.055 0,0 -0.009,0.003 -0.017,0.003 0,0 -0.031,0 -0.037,-0.027 0,0 -0.001,-0.004 -0.001,-0.008 0,0 0,-0.03 0.029,-0.047 0,0 0.009,-0.005 0.019,-0.007 0,0 -0.021,-0.013 -0.05,-0.013 0,0 -0.068,0 -0.096,0.106 0,0 -0.002,0.006 -0.003,0.012 z"
           style="fill:#000000;fill-opacity:1;fill-rule:nonzero;stroke:none"
           id="path202" /></g></g></g></svg>
